<svg xmlns="http://www.w3.org/2000/svg" viewBox="0 0 594.85 138.4"><defs><style>.cls-1{fill:#fff}.cls-4{fill:#8fbed5}</style></defs><g id="Layer_2" data-name="Layer 2"><g id="Layer_1-2" data-name="Layer 1"><path class="cls-1" d="M190.95 98.36c-16.72 0-30.08-11.28-30.08-29 0-16.56 13.52-29 30.08-29a28.46 28.46 0 0 1 15 4.32l-3.6 5.92a21.75 21.75 0 0 0-11.44-3.36C178.31 47.32 169 56.6 169 69.4c0 13.6 9.12 22.08 21.92 22.08a21.67 21.67 0 0 0 12.4-3.92l4.08 5.68a29.11 29.11 0 0 1-16.45 5.12zm26-40.96l10.4 30.32h.16l10.64-30.32h7.92l-22.48 58-6.4-2.48 6.32-16.72-14.64-38.8zm42-20v25.36a15.54 15.54 0 0 1 12.72-6.32c11.52 0 20 9.28 20 21 0 10.56-7.92 20.88-20.16 20.88a17.8 17.8 0 0 1-12.56-5.28v4.36h-7.28v-60zm0 48.16a14.57 14.57 0 0 0 11.6 6.08c9.28 0 13.68-7.44 13.68-14.32 0-7.44-5.2-14.16-13.52-14.16-4.32 0-9.76 2.64-11.76 7.6zm46.72-6.32c.48 6.88 5.2 12.88 12.88 12.88 5.28 0 9.52-1.92 11.92-6.48l5.28 3.36c-4 6.4-9.44 9.36-17.52 9.36-12.72 0-19.84-9.28-19.84-21 0-11.92 8.72-21 19.84-21 10.56 0 18.24 7.92 18.24 18.64a31.52 31.52 0 0 1-.32 4.16zm.56-5.84h22.72c-.32-5.68-4.64-10.72-10.64-10.72-6.48 0-10.64 4.72-12.08 10.72zm46-9.4c2.4-4.32 6-7.6 10.32-7.6a18.8 18.8 0 0 1 4.32.48l-1.36 7.76a8.13 8.13 0 0 0-3.76-.8c-4.08 0-7 2.4-9.52 6.72V97.4h-7.28v-40h7.28zm40.48 11h-9v22.4H376v-56h16.72c9 0 19.76 4.48 19.76 16.72-.01 12.4-10.65 16.88-19.77 16.88zm-.4-26.72h-8.64v19.84h7c7.76 0 13.6-2.56 13.6-9.76.04-6.36-4.84-10.08-11.96-10.08zm63.52 29.12c0 11.68-8.72 21-20.4 21S415 89.08 415 77.4s8.72-21 20.4-21 20.43 9.32 20.43 21zm-20.4-14.24c-7.52 0-13 6.48-13 14.24s5.44 14.24 13 14.24 13-6.48 13-14.24-5.48-14.24-13-14.24zM470 97.4h-7.3v-60h7.3zm10.22-47.84V41.4h7.28v8.16zm0 47.84v-40h7.28v40zm48.48-2.96a19.81 19.81 0 0 1-12.24 3.92C505 98.36 496 90 496 77.4a20.76 20.76 0 0 1 20.88-21 20 20 0 0 1 11.28 3.44l-3.44 6a14.06 14.06 0 0 0-8.16-2.72c-7.2 0-13.12 6.32-13.12 14.24 0 8.64 6.24 14.24 13.2 14.24a16.24 16.24 0 0 0 8.48-2.8zm12.08-37.04l10.4 30.32h.16L562 57.4h7.92l-22.48 58-6.4-2.48 6.32-16.72-14.66-38.8z"/><path d="M110.64 69.2A41.31 41.31 0 0 1 98.5 98.5l19.63 19.63a69.2 69.2 0 0 0 0-97.86L98.5 39.9a41.31 41.31 0 0 1 12.14 29.3z" fill="#e1edf8"/><circle cx="69.2" cy="69.2" r="33.87" fill="#bfda2f"/><path class="cls-4" d="M69.2 27.76A41.31 41.31 0 0 1 98.5 39.9l19.63-19.63a69.2 69.2 0 1 0-90.37 104.36V69.2A41.44 41.44 0 0 1 69.2 27.76z"/><path class="cls-4" d="M69.2 110.64a41.39 41.39 0 0 1-34.14-18v36.76a69.23 69.23 0 0 0 83.07-11.27L98.5 98.5a41.31 41.31 0 0 1-29.3 12.14z"/><path class="cls-1" d="M582 38.43v7.39h-1.16v-7.39h-2.12v-1h5.39v1zm8.82 7.4H590l-2.83-7.12v7.12H586V37.4h1.83l2.59 6.6 2.58-6.6h1.83v8.43h-1.16v-7.12z"/></g></g></svg>